<svg width="24" height="24" viewBox="0 0 24 24" fill="none" xmlns="http://www.w3.org/2000/svg">
<g clip-path="url(#clip0_1561_6582)">
<path d="M0 12C0 18.6274 5.37258 24 12 24C18.6274 24 24 18.6274 24 12C24 5.37258 18.6274 0 12 0C5.37258 0 0 5.37258 0 12Z" fill="#212121"/>
<g filter="url(#filter0_d_1561_6582)">
<path opacity="0.4" d="M15.936 8.92804C15.936 10.0945 16.8815 11.04 18.048 11.04C19.2144 11.04 20.16 10.0945 20.16 8.92804C20.16 7.76161 19.2144 6.81604 18.048 6.81604C16.8815 6.81604 15.936 7.76161 15.936 8.92804Z" fill="url(#paint0_linear_1561_6582)"/>
<path d="M8.06409 15.072C8.06409 13.9056 7.11851 12.96 5.95209 12.96C4.78566 12.96 3.84009 13.9056 3.84009 15.072C3.84009 16.2384 4.78566 17.184 5.95209 17.184C7.11851 17.184 8.06409 16.2384 8.06409 15.072Z" fill="url(#paint1_linear_1561_6582)"/>
<g style="mix-blend-mode:lighten">
<path d="M18.048 11.04C19.2145 11.04 20.16 10.0945 20.16 8.92804C20.16 7.76161 19.2145 6.81604 18.048 6.81604L7.87203 6.81604C6.70561 6.81604 5.76003 7.76161 5.76003 8.92804C5.76003 10.0945 6.70561 11.04 7.87203 11.04H18.048Z" fill="url(#paint2_linear_1561_6582)"/>
</g>
<path d="M5.95209 12.96C4.78566 12.96 3.84009 13.9056 3.84009 15.072C3.84009 16.2384 4.78566 17.184 5.95209 17.184H16.4161C17.5825 17.184 18.5281 16.2384 18.5281 15.072C18.5281 13.9056 17.5825 12.96 16.4161 12.96H5.95209Z" fill="url(#paint3_linear_1561_6582)"/>
</g>
</g>
<defs>
<filter id="filter0_d_1561_6582" x="-16.1599" y="-13.184" width="56.3199" height="50.368" filterUnits="userSpaceOnUse" color-interpolation-filters="sRGB">
<feFlood flood-opacity="0" result="BackgroundImageFix"/>
<feColorMatrix in="SourceAlpha" type="matrix" values="0 0 0 0 0 0 0 0 0 0 0 0 0 0 0 0 0 0 127 0" result="hardAlpha"/>
<feOffset/>
<feGaussianBlur stdDeviation="10"/>
<feComposite in2="hardAlpha" operator="out"/>
<feColorMatrix type="matrix" values="0 0 0 0 0 0 0 0 0 0 0 0 0 0 0 0 0 0 0.2 0"/>
<feBlend mode="normal" in2="BackgroundImageFix" result="effect1_dropShadow_1561_6582"/>
<feBlend mode="normal" in="SourceGraphic" in2="effect1_dropShadow_1561_6582" result="shape"/>
</filter>
<linearGradient id="paint0_linear_1561_6582" x1="17.6396" y1="9.1533" x2="12.4019" y2="13.9687" gradientUnits="userSpaceOnUse">
<stop stop-color="#7239EE"/>
<stop offset="0.515625" stop-color="#C374F9"/>
<stop offset="1" stop-color="#6FCFEE"/>
</linearGradient>
<linearGradient id="paint1_linear_1561_6582" x1="6.01242" y1="14.8206" x2="7.91322" y2="15.072" gradientUnits="userSpaceOnUse">
<stop stop-color="#00FF09"/>
<stop offset="1" stop-color="#60FF66" stop-opacity="0"/>
</linearGradient>
<linearGradient id="paint2_linear_1561_6582" x1="21.2677" y1="8.92804" x2="7.97543" y2="8.92804" gradientUnits="userSpaceOnUse">
<stop offset="0.186805" stop-color="#56FF1D"/>
<stop offset="1" stop-color="#753CEF" stop-opacity="0"/>
</linearGradient>
<linearGradient id="paint3_linear_1561_6582" x1="4.88922" y1="13.312" x2="18.1784" y2="13.312" gradientUnits="userSpaceOnUse">
<stop stop-color="#FBFF34"/>
<stop offset="1" stop-color="#91FF6A" stop-opacity="0"/>
</linearGradient>
<clipPath id="clip0_1561_6582">
<rect width="24" height="24" fill="white"/>
</clipPath>
</defs>
</svg>
