<svg width="40" height="40" viewBox="0 0 40 40" fill="none" xmlns="http://www.w3.org/2000/svg">
<g clip-path="url(#clip0_1561_6604)">
<path d="M0 20C0 31.0457 8.9543 40 20 40C31.0457 40 40 31.0457 40 20C40 8.9543 31.0457 0 20 0C8.9543 0 0 8.9543 0 20Z" fill="#212121"/>
<g filter="url(#filter0_d_1561_6604)">
<path opacity="0.4" d="M26.56 14.88C26.56 16.824 28.1359 18.4 30.08 18.4C32.024 18.4 33.6 16.824 33.6 14.88C33.6 12.9359 32.024 11.36 30.08 11.36C28.1359 11.36 26.56 12.9359 26.56 14.88Z" fill="url(#paint0_linear_1561_6604)"/>
<path d="M13.4401 25.12C13.4401 23.176 11.8642 21.6 9.92015 21.6C7.9761 21.6 6.40015 23.176 6.40015 25.12C6.40015 27.0641 7.9761 28.64 9.92015 28.64C11.8642 28.64 13.4401 27.0641 13.4401 25.12Z" fill="url(#paint1_linear_1561_6604)"/>
<g style="mix-blend-mode:lighten">
<path d="M30.08 18.4C32.024 18.4 33.6 16.824 33.6 14.88C33.6 12.9359 32.024 11.36 30.08 11.36L13.12 11.36C11.1759 11.36 9.59998 12.9359 9.59998 14.88C9.59998 16.824 11.1759 18.4 13.12 18.4H30.08Z" fill="url(#paint2_linear_1561_6604)"/>
</g>
<path d="M9.92015 21.6C7.9761 21.6 6.40015 23.176 6.40015 25.12C6.40015 27.0641 7.9761 28.64 9.92015 28.64H27.3601C29.3042 28.64 30.8801 27.0641 30.8801 25.12C30.8801 23.176 29.3042 21.6 27.3601 21.6H9.92015Z" fill="url(#paint3_linear_1561_6604)"/>
</g>
</g>
<defs>
<filter id="filter0_d_1561_6604" x="-13.5999" y="-8.64001" width="67.1998" height="57.28" filterUnits="userSpaceOnUse" color-interpolation-filters="sRGB">
<feFlood flood-opacity="0" result="BackgroundImageFix"/>
<feColorMatrix in="SourceAlpha" type="matrix" values="0 0 0 0 0 0 0 0 0 0 0 0 0 0 0 0 0 0 127 0" result="hardAlpha"/>
<feOffset/>
<feGaussianBlur stdDeviation="10"/>
<feComposite in2="hardAlpha" operator="out"/>
<feColorMatrix type="matrix" values="0 0 0 0 0 0 0 0 0 0 0 0 0 0 0 0 0 0 0.2 0"/>
<feBlend mode="normal" in2="BackgroundImageFix" result="effect1_dropShadow_1561_6604"/>
<feBlend mode="normal" in="SourceGraphic" in2="effect1_dropShadow_1561_6604" result="shape"/>
</filter>
<linearGradient id="paint0_linear_1561_6604" x1="29.3994" y1="15.2554" x2="20.6698" y2="23.281" gradientUnits="userSpaceOnUse">
<stop stop-color="#7239EE"/>
<stop offset="0.515625" stop-color="#C374F9"/>
<stop offset="1" stop-color="#6FCFEE"/>
</linearGradient>
<linearGradient id="paint1_linear_1561_6604" x1="10.0207" y1="24.701" x2="13.1887" y2="25.12" gradientUnits="userSpaceOnUse">
<stop stop-color="#00FF09"/>
<stop offset="1" stop-color="#60FF66" stop-opacity="0"/>
</linearGradient>
<linearGradient id="paint2_linear_1561_6604" x1="35.4461" y1="14.88" x2="13.2923" y2="14.88" gradientUnits="userSpaceOnUse">
<stop offset="0.186805" stop-color="#56FF1D"/>
<stop offset="1" stop-color="#753CEF" stop-opacity="0"/>
</linearGradient>
<linearGradient id="paint3_linear_1561_6604" x1="8.14871" y1="22.1867" x2="30.2973" y2="22.1867" gradientUnits="userSpaceOnUse">
<stop stop-color="#FBFF34"/>
<stop offset="1" stop-color="#91FF6A" stop-opacity="0"/>
</linearGradient>
<clipPath id="clip0_1561_6604">
<rect width="40" height="40" fill="white"/>
</clipPath>
</defs>
</svg>
