<svg width="16" height="16" viewBox="0 0 16 16" fill="none" xmlns="http://www.w3.org/2000/svg">
<g clip-path="url(#clip0_1561_6560)">
<path d="M0 8C0 12.4183 3.58172 16 8 16C12.4183 16 16 12.4183 16 8C16 3.58172 12.4183 0 8 0C3.58172 0 0 3.58172 0 8Z" fill="#212121"/>
<g filter="url(#filter0_d_1561_6560)">
<path opacity="0.4" d="M10.624 5.95201C10.624 6.72962 11.2544 7.36001 12.032 7.36001C12.8096 7.36001 13.44 6.72962 13.44 5.95201C13.44 5.17439 12.8096 4.54401 12.032 4.54401C11.2544 4.54401 10.624 5.17439 10.624 5.95201Z" fill="url(#paint0_linear_1561_6560)"/>
<path d="M5.376 10.048C5.376 9.27038 4.74561 8.63999 3.968 8.63999C3.19038 8.63999 2.56 9.27038 2.56 10.048C2.56 10.8256 3.19038 11.456 3.968 11.456C4.74561 11.456 5.376 10.8256 5.376 10.048Z" fill="url(#paint1_linear_1561_6560)"/>
<g style="mix-blend-mode:lighten">
<path d="M12.032 7.36001C12.8096 7.36001 13.44 6.72962 13.44 5.95201C13.44 5.17439 12.8096 4.54401 12.032 4.54401L5.248 4.54401C4.47038 4.54401 3.84 5.17439 3.84 5.95201C3.84 6.72962 4.47038 7.36001 5.248 7.36001H12.032Z" fill="url(#paint2_linear_1561_6560)"/>
</g>
<path d="M3.968 8.63999C3.19038 8.63999 2.56 9.27038 2.56 10.048C2.56 10.8256 3.19038 11.456 3.968 11.456H10.944C11.7216 11.456 12.352 10.8256 12.352 10.048C12.352 9.27038 11.7216 8.63999 10.944 8.63999H3.968Z" fill="url(#paint3_linear_1561_6560)"/>
</g>
</g>
<defs>
<filter id="filter0_d_1561_6560" x="-17.44" y="-15.456" width="50.88" height="46.912" filterUnits="userSpaceOnUse" color-interpolation-filters="sRGB">
<feFlood flood-opacity="0" result="BackgroundImageFix"/>
<feColorMatrix in="SourceAlpha" type="matrix" values="0 0 0 0 0 0 0 0 0 0 0 0 0 0 0 0 0 0 127 0" result="hardAlpha"/>
<feOffset/>
<feGaussianBlur stdDeviation="10"/>
<feComposite in2="hardAlpha" operator="out"/>
<feColorMatrix type="matrix" values="0 0 0 0 0 0 0 0 0 0 0 0 0 0 0 0 0 0 0.2 0"/>
<feBlend mode="normal" in2="BackgroundImageFix" result="effect1_dropShadow_1561_6560"/>
<feBlend mode="normal" in="SourceGraphic" in2="effect1_dropShadow_1561_6560" result="shape"/>
</filter>
<linearGradient id="paint0_linear_1561_6560" x1="11.7598" y1="6.10218" x2="8.26794" y2="9.31242" gradientUnits="userSpaceOnUse">
<stop stop-color="#7239EE"/>
<stop offset="0.515625" stop-color="#C374F9"/>
<stop offset="1" stop-color="#6FCFEE"/>
</linearGradient>
<linearGradient id="paint1_linear_1561_6560" x1="4.00822" y1="9.88038" x2="5.27542" y2="10.048" gradientUnits="userSpaceOnUse">
<stop stop-color="#00FF09"/>
<stop offset="1" stop-color="#60FF66" stop-opacity="0"/>
</linearGradient>
<linearGradient id="paint2_linear_1561_6560" x1="14.1785" y1="5.95201" x2="5.31693" y2="5.95201" gradientUnits="userSpaceOnUse">
<stop offset="0.186805" stop-color="#56FF1D"/>
<stop offset="1" stop-color="#753CEF" stop-opacity="0"/>
</linearGradient>
<linearGradient id="paint3_linear_1561_6560" x1="3.25942" y1="8.87465" x2="12.1188" y2="8.87465" gradientUnits="userSpaceOnUse">
<stop stop-color="#FBFF34"/>
<stop offset="1" stop-color="#91FF6A" stop-opacity="0"/>
</linearGradient>
<clipPath id="clip0_1561_6560">
<rect width="16" height="16" fill="white"/>
</clipPath>
</defs>
</svg>
