<svg width="96" height="96" viewBox="0 0 96 96" fill="none" xmlns="http://www.w3.org/2000/svg">
<g clip-path="url(#clip0_1561_6613)">
<g clip-path="url(#clip1_1561_6613)">
<path d="M0 48C0 74.5097 21.4903 96 48 96C74.5097 96 96 74.5097 96 48C96 21.4903 74.5097 0 48 0C21.4903 0 0 21.4903 0 48Z" fill="#212121"/>
<g filter="url(#filter0_d_1561_6613)">
<path opacity="0.4" d="M24.96 57.9974C28.1411 57.9974 30.72 55.3296 30.72 52.0388C30.72 48.7479 28.1411 46.0801 24.96 46.0801C21.7788 46.0801 19.2 48.7479 19.2 52.0388C19.2 55.3296 21.7788 57.9974 24.96 57.9974Z" fill="url(#paint0_linear_1561_6613)"/>
<path opacity="0.4" d="M71.0399 57.6C67.8588 57.6 65.2799 60.1788 65.2799 63.36C65.2799 66.5412 67.8588 69.12 71.0399 69.12C74.2211 69.12 76.7999 66.5412 76.7999 63.36C76.7999 60.1788 74.2211 57.6 71.0399 57.6Z" fill="url(#paint1_linear_1561_6613)"/>
<path d="M40.32 65.28C37.1388 65.28 34.56 67.8588 34.56 71.04C34.56 74.2211 37.1388 76.8 40.32 76.8C43.5011 76.8 46.08 74.2211 46.08 71.04C46.08 67.8588 43.5011 65.28 40.32 65.28Z" fill="url(#paint2_linear_1561_6613)"/>
<path d="M55.6799 19.2C52.4988 19.2 49.9199 21.7789 49.9199 24.96C49.9199 28.1412 52.4988 30.72 55.6799 30.72C58.8611 30.72 61.4399 28.1412 61.4399 24.96C61.4399 21.7789 58.8611 19.2 55.6799 19.2Z" fill="#80FF00" fill-opacity="0.33"/>
<g style="mix-blend-mode:lighten">
<path d="M30.72 51.84C30.72 48.6589 28.1411 46.08 24.96 46.08C21.7788 46.08 19.2 48.6589 19.2 51.84V67.2C19.2 70.3812 21.7788 72.96 24.96 72.96C28.1411 72.96 30.72 70.3812 30.72 67.2V51.84Z" fill="url(#paint3_linear_1561_6613)"/>
</g>
<g style="mix-blend-mode:lighten">
<path d="M65.2799 63.3601C65.2799 66.5412 67.8588 69.1201 71.0399 69.1201C74.2211 69.1201 76.7999 66.5412 76.7999 63.3601V36.4801C76.7999 33.2989 74.2211 30.7201 71.0399 30.7201C67.8588 30.7201 65.2799 33.2989 65.2799 36.4801V63.3601Z" fill="url(#paint4_linear_1561_6613)"/>
</g>
<path d="M34.56 71.04C34.56 74.2211 37.1388 76.8 40.32 76.8C43.5011 76.8 46.08 74.2211 46.08 71.04L46.08 40.32C46.08 37.1388 43.5011 34.56 40.32 34.56C37.1388 34.56 34.56 37.1388 34.56 40.32L34.56 71.04Z" fill="url(#paint5_linear_1561_6613)"/>
<path d="M61.4399 24.96C61.4399 21.7789 58.8611 19.2 55.6799 19.2C52.4988 19.2 49.9199 21.7789 49.9199 24.96V51.84C49.9199 55.0212 52.4988 57.6 55.6799 57.6C58.8611 57.6 61.4399 55.0212 61.4399 51.84V24.96Z" fill="url(#paint6_linear_1561_6613)"/>
</g>
</g>
</g>
<defs>
<filter id="filter0_d_1561_6613" x="-0.800049" y="-0.799988" width="97.6" height="97.6" filterUnits="userSpaceOnUse" color-interpolation-filters="sRGB">
<feFlood flood-opacity="0" result="BackgroundImageFix"/>
<feColorMatrix in="SourceAlpha" type="matrix" values="0 0 0 0 0 0 0 0 0 0 0 0 0 0 0 0 0 0 127 0" result="hardAlpha"/>
<feOffset/>
<feGaussianBlur stdDeviation="10"/>
<feComposite in2="hardAlpha" operator="out"/>
<feColorMatrix type="matrix" values="0 0 0 0 0 0 0 0 0 0 0 0 0 0 0 0 0 0 0.2 0"/>
<feBlend mode="normal" in2="BackgroundImageFix" result="effect1_dropShadow_1561_6613"/>
<feBlend mode="normal" in="SourceGraphic" in2="effect1_dropShadow_1561_6613" result="shape"/>
</filter>
<linearGradient id="paint0_linear_1561_6613" x1="25.5744" y1="53.1908" x2="39.191" y2="67.508" gradientUnits="userSpaceOnUse">
<stop stop-color="#7239EE"/>
<stop offset="0.515625" stop-color="#C374F9"/>
<stop offset="1" stop-color="#6FCFEE"/>
</linearGradient>
<linearGradient id="paint1_linear_1561_6613" x1="70.4255" y1="62.2464" x2="57.2927" y2="47.9616" gradientUnits="userSpaceOnUse">
<stop stop-color="#7239EE"/>
<stop offset="0.515625" stop-color="#C374F9"/>
<stop offset="1" stop-color="#6FCFEE"/>
</linearGradient>
<linearGradient id="paint2_linear_1561_6613" x1="39.6341" y1="70.8754" x2="40.32" y2="65.6914" gradientUnits="userSpaceOnUse">
<stop stop-color="#00FF09"/>
<stop offset="1" stop-color="#60FF66" stop-opacity="0"/>
</linearGradient>
<linearGradient id="paint3_linear_1561_6613" x1="24.96" y1="44.0124" x2="24.96" y2="68.8247" gradientUnits="userSpaceOnUse">
<stop offset="0.186805" stop-color="#6EC052"/>
<stop offset="1" stop-color="#753CEF" stop-opacity="0"/>
</linearGradient>
<linearGradient id="paint4_linear_1561_6613" x1="71.0399" y1="72.074" x2="71.0399" y2="36.6277" gradientUnits="userSpaceOnUse">
<stop offset="0.186805" stop-color="#6EC052"/>
<stop offset="1" stop-color="#753CEF" stop-opacity="0"/>
</linearGradient>
<linearGradient id="paint5_linear_1561_6613" x1="35.52" y1="73.7829" x2="35.52" y2="35.5657" gradientUnits="userSpaceOnUse">
<stop stop-color="#FBFF34"/>
<stop offset="1" stop-color="#91FF6A" stop-opacity="0.17"/>
</linearGradient>
<linearGradient id="paint6_linear_1561_6613" x1="56.6399" y1="57.6" x2="56.6399" y2="19.2" gradientUnits="userSpaceOnUse">
<stop stop-color="#FFF25B" stop-opacity="0.26"/>
<stop offset="1" stop-color="#91FF6A"/>
</linearGradient>
<clipPath id="clip0_1561_6613">
<rect width="96" height="96" fill="white"/>
</clipPath>
<clipPath id="clip1_1561_6613">
<rect width="96" height="96" fill="white"/>
</clipPath>
</defs>
</svg>
