<svg width="24" height="24" viewBox="0 0 24 24" fill="none" xmlns="http://www.w3.org/2000/svg">
<g clip-path="url(#clip0_1561_6569)">
<path d="M0 12C0 18.6274 5.37258 24 12 24C18.6274 24 24 18.6274 24 12C24 5.37258 18.6274 0 12 0C5.37258 0 0 5.37258 0 12Z" fill="#212121"/>
<g filter="url(#filter0_d_1561_6569)">
<path opacity="0.4" d="M6.23999 14.4993C7.03528 14.4993 7.67999 13.8324 7.67999 13.0097C7.67999 12.187 7.03528 11.52 6.23999 11.52C5.4447 11.52 4.79999 12.187 4.79999 13.0097C4.79999 13.8324 5.4447 14.4993 6.23999 14.4993Z" fill="url(#paint0_linear_1561_6569)"/>
<path opacity="0.4" d="M17.76 14.4C16.9647 14.4 16.32 15.0447 16.32 15.84C16.32 16.6353 16.9647 17.28 17.76 17.28C18.5553 17.28 19.2 16.6353 19.2 15.84C19.2 15.0447 18.5553 14.4 17.76 14.4Z" fill="url(#paint1_linear_1561_6569)"/>
<path d="M10.08 16.32C9.28473 16.32 8.64002 16.9647 8.64002 17.76C8.64002 18.5552 9.28473 19.2 10.08 19.2C10.8753 19.2 11.52 18.5552 11.52 17.76C11.52 16.9647 10.8753 16.32 10.08 16.32Z" fill="url(#paint2_linear_1561_6569)"/>
<path d="M13.92 4.79999C13.1247 4.79999 12.48 5.4447 12.48 6.23999C12.48 7.03528 13.1247 7.67999 13.92 7.67999C14.7153 7.67999 15.36 7.03528 15.36 6.23999C15.36 5.4447 14.7153 4.79999 13.92 4.79999Z" fill="#80FF00" fill-opacity="0.33"/>
<g style="mix-blend-mode:lighten">
<path d="M7.67999 12.96C7.67999 12.1647 7.03528 11.52 6.23999 11.52C5.4447 11.52 4.79999 12.1647 4.79999 12.96V16.8C4.79999 17.5953 5.4447 18.24 6.23999 18.24C7.03528 18.24 7.67999 17.5953 7.67999 16.8V12.96Z" fill="url(#paint3_linear_1561_6569)"/>
</g>
<g style="mix-blend-mode:lighten">
<path d="M16.32 15.84C16.32 16.6353 16.9647 17.28 17.76 17.28C18.5553 17.28 19.2 16.6353 19.2 15.84V9.12C19.2 8.32471 18.5553 7.68 17.76 7.68C16.9647 7.68 16.32 8.32471 16.32 9.12V15.84Z" fill="url(#paint4_linear_1561_6569)"/>
</g>
<path d="M8.64002 17.76C8.64002 18.5552 9.28473 19.2 10.08 19.2C10.8753 19.2 11.52 18.5552 11.52 17.76L11.52 10.08C11.52 9.28466 10.8753 8.63995 10.08 8.63995C9.28473 8.63995 8.64002 9.28466 8.64002 10.08L8.64002 17.76Z" fill="url(#paint5_linear_1561_6569)"/>
<path d="M15.36 6.23999C15.36 5.4447 14.7153 4.79999 13.92 4.79999C13.1247 4.79999 12.48 5.4447 12.48 6.23999V12.96C12.48 13.7553 13.1247 14.4 13.92 14.4C14.7153 14.4 15.36 13.7553 15.36 12.96V6.23999Z" fill="url(#paint6_linear_1561_6569)"/>
</g>
</g>
<defs>
<filter id="filter0_d_1561_6569" x="-15.2" y="-15.2" width="54.4" height="54.4" filterUnits="userSpaceOnUse" color-interpolation-filters="sRGB">
<feFlood flood-opacity="0" result="BackgroundImageFix"/>
<feColorMatrix in="SourceAlpha" type="matrix" values="0 0 0 0 0 0 0 0 0 0 0 0 0 0 0 0 0 0 127 0" result="hardAlpha"/>
<feOffset/>
<feGaussianBlur stdDeviation="10"/>
<feComposite in2="hardAlpha" operator="out"/>
<feColorMatrix type="matrix" values="0 0 0 0 0 0 0 0 0 0 0 0 0 0 0 0 0 0 0.2 0"/>
<feBlend mode="normal" in2="BackgroundImageFix" result="effect1_dropShadow_1561_6569"/>
<feBlend mode="normal" in="SourceGraphic" in2="effect1_dropShadow_1561_6569" result="shape"/>
</filter>
<linearGradient id="paint0_linear_1561_6569" x1="6.39359" y1="13.2977" x2="9.79775" y2="16.877" gradientUnits="userSpaceOnUse">
<stop stop-color="#7239EE"/>
<stop offset="0.515625" stop-color="#C374F9"/>
<stop offset="1" stop-color="#6FCFEE"/>
</linearGradient>
<linearGradient id="paint1_linear_1561_6569" x1="17.6064" y1="15.5616" x2="14.3232" y2="11.9904" gradientUnits="userSpaceOnUse">
<stop stop-color="#7239EE"/>
<stop offset="0.515625" stop-color="#C374F9"/>
<stop offset="1" stop-color="#6FCFEE"/>
</linearGradient>
<linearGradient id="paint2_linear_1561_6569" x1="9.90856" y1="17.7188" x2="10.08" y2="16.4228" gradientUnits="userSpaceOnUse">
<stop stop-color="#00FF09"/>
<stop offset="1" stop-color="#60FF66" stop-opacity="0"/>
</linearGradient>
<linearGradient id="paint3_linear_1561_6569" x1="6.23999" y1="11.0031" x2="6.23999" y2="17.2062" gradientUnits="userSpaceOnUse">
<stop offset="0.186805" stop-color="#6EC052"/>
<stop offset="1" stop-color="#753CEF" stop-opacity="0"/>
</linearGradient>
<linearGradient id="paint4_linear_1561_6569" x1="17.76" y1="18.0185" x2="17.76" y2="9.15691" gradientUnits="userSpaceOnUse">
<stop offset="0.186805" stop-color="#6EC052"/>
<stop offset="1" stop-color="#753CEF" stop-opacity="0"/>
</linearGradient>
<linearGradient id="paint5_linear_1561_6569" x1="8.88002" y1="18.4457" x2="8.88002" y2="8.89138" gradientUnits="userSpaceOnUse">
<stop stop-color="#FBFF34"/>
<stop offset="1" stop-color="#91FF6A" stop-opacity="0.17"/>
</linearGradient>
<linearGradient id="paint6_linear_1561_6569" x1="14.16" y1="14.4" x2="14.16" y2="4.79999" gradientUnits="userSpaceOnUse">
<stop stop-color="#FFF25B" stop-opacity="0.26"/>
<stop offset="1" stop-color="#91FF6A"/>
</linearGradient>
<clipPath id="clip0_1561_6569">
<rect width="24" height="24" fill="white"/>
</clipPath>
</defs>
</svg>
