<svg width="40" height="40" viewBox="0 0 40 40" fill="none" xmlns="http://www.w3.org/2000/svg">
<g clip-path="url(#clip0_1561_6591)">
<path d="M0 20C0 31.0457 8.9543 40 20 40C31.0457 40 40 31.0457 40 20C40 8.9543 31.0457 0 20 0C8.9543 0 0 8.9543 0 20Z" fill="#212121"/>
<g filter="url(#filter0_d_1561_6591)">
<path opacity="0.4" d="M10.4 24.1656C11.7255 24.1656 12.8 23.054 12.8 21.6828C12.8 20.3116 11.7255 19.2 10.4 19.2C9.07452 19.2 8 20.3116 8 21.6828C8 23.054 9.07452 24.1656 10.4 24.1656Z" fill="url(#paint0_linear_1561_6591)"/>
<path opacity="0.4" d="M29.6 24C28.2745 24 27.2 25.0745 27.2 26.4C27.2 27.7255 28.2745 28.8 29.6 28.8C30.9255 28.8 32 27.7255 32 26.4C32 25.0745 30.9255 24 29.6 24Z" fill="url(#paint1_linear_1561_6591)"/>
<path d="M16.8 27.1999C15.4745 27.1999 14.4 28.2745 14.4 29.5999C14.4 30.9254 15.4745 31.9999 16.8 31.9999C18.1254 31.9999 19.2 30.9254 19.2 29.5999C19.2 28.2745 18.1254 27.1999 16.8 27.1999Z" fill="url(#paint2_linear_1561_6591)"/>
<path d="M23.2 7.99999C21.8745 7.99999 20.8 9.0745 20.8 10.4C20.8 11.7255 21.8745 12.8 23.2 12.8C24.5255 12.8 25.6 11.7255 25.6 10.4C25.6 9.0745 24.5255 7.99999 23.2 7.99999Z" fill="#80FF00" fill-opacity="0.33"/>
<g style="mix-blend-mode:lighten">
<path d="M12.8 21.6C12.8 20.2745 11.7255 19.2 10.4 19.2C9.07452 19.2 8 20.2745 8 21.6V28C8 29.3255 9.07452 30.4 10.4 30.4C11.7255 30.4 12.8 29.3255 12.8 28V21.6Z" fill="url(#paint3_linear_1561_6591)"/>
</g>
<g style="mix-blend-mode:lighten">
<path d="M27.2001 26.4C27.2001 27.7255 28.2746 28.8 29.6001 28.8C30.9256 28.8 32.0001 27.7255 32.0001 26.4V15.2C32.0001 13.8745 30.9256 12.8 29.6001 12.8C28.2746 12.8 27.2001 13.8745 27.2001 15.2V26.4Z" fill="url(#paint4_linear_1561_6591)"/>
</g>
<path d="M14.4 29.5999C14.4 30.9254 15.4745 31.9999 16.8 31.9999C18.1254 31.9999 19.2 30.9254 19.2 29.5999L19.2 16.7999C19.2 15.4745 18.1254 14.3999 16.8 14.3999C15.4745 14.3999 14.4 15.4745 14.4 16.7999L14.4 29.5999Z" fill="url(#paint5_linear_1561_6591)"/>
<path d="M25.6 10.4C25.6 9.07452 24.5255 8 23.2 8C21.8746 8 20.8 9.07452 20.8 10.4V21.6C20.8 22.9255 21.8746 24 23.2 24C24.5255 24 25.6 22.9255 25.6 21.6V10.4Z" fill="url(#paint6_linear_1561_6591)"/>
</g>
</g>
<defs>
<filter id="filter0_d_1561_6591" x="-12" y="-12" width="64.0001" height="63.9999" filterUnits="userSpaceOnUse" color-interpolation-filters="sRGB">
<feFlood flood-opacity="0" result="BackgroundImageFix"/>
<feColorMatrix in="SourceAlpha" type="matrix" values="0 0 0 0 0 0 0 0 0 0 0 0 0 0 0 0 0 0 127 0" result="hardAlpha"/>
<feOffset/>
<feGaussianBlur stdDeviation="10"/>
<feComposite in2="hardAlpha" operator="out"/>
<feColorMatrix type="matrix" values="0 0 0 0 0 0 0 0 0 0 0 0 0 0 0 0 0 0 0.2 0"/>
<feBlend mode="normal" in2="BackgroundImageFix" result="effect1_dropShadow_1561_6591"/>
<feBlend mode="normal" in="SourceGraphic" in2="effect1_dropShadow_1561_6591" result="shape"/>
</filter>
<linearGradient id="paint0_linear_1561_6591" x1="10.656" y1="22.1628" x2="16.3296" y2="28.1283" gradientUnits="userSpaceOnUse">
<stop stop-color="#7239EE"/>
<stop offset="0.515625" stop-color="#C374F9"/>
<stop offset="1" stop-color="#6FCFEE"/>
</linearGradient>
<linearGradient id="paint1_linear_1561_6591" x1="29.344" y1="25.936" x2="23.872" y2="19.984" gradientUnits="userSpaceOnUse">
<stop stop-color="#7239EE"/>
<stop offset="0.515625" stop-color="#C374F9"/>
<stop offset="1" stop-color="#6FCFEE"/>
</linearGradient>
<linearGradient id="paint2_linear_1561_6591" x1="16.5142" y1="29.5314" x2="16.8" y2="27.3714" gradientUnits="userSpaceOnUse">
<stop stop-color="#00FF09"/>
<stop offset="1" stop-color="#60FF66" stop-opacity="0"/>
</linearGradient>
<linearGradient id="paint3_linear_1561_6591" x1="10.4" y1="18.3385" x2="10.4" y2="28.6769" gradientUnits="userSpaceOnUse">
<stop offset="0.186805" stop-color="#6EC052"/>
<stop offset="1" stop-color="#753CEF" stop-opacity="0"/>
</linearGradient>
<linearGradient id="paint4_linear_1561_6591" x1="29.6001" y1="30.0308" x2="29.6001" y2="15.2615" gradientUnits="userSpaceOnUse">
<stop offset="0.186805" stop-color="#6EC052"/>
<stop offset="1" stop-color="#753CEF" stop-opacity="0"/>
</linearGradient>
<linearGradient id="paint5_linear_1561_6591" x1="14.8" y1="30.7428" x2="14.8" y2="14.819" gradientUnits="userSpaceOnUse">
<stop stop-color="#FBFF34"/>
<stop offset="1" stop-color="#91FF6A" stop-opacity="0.17"/>
</linearGradient>
<linearGradient id="paint6_linear_1561_6591" x1="23.6" y1="24" x2="23.6" y2="8" gradientUnits="userSpaceOnUse">
<stop stop-color="#FFF25B" stop-opacity="0.26"/>
<stop offset="1" stop-color="#91FF6A"/>
</linearGradient>
<clipPath id="clip0_1561_6591">
<rect width="40" height="40" fill="white"/>
</clipPath>
</defs>
</svg>
