<svg width="26" height="26" viewBox="0 0 26 26" fill="none" xmlns="http://www.w3.org/2000/svg">
<ellipse opacity="0.4" cx="2.6" cy="14.823" rx="2.6" ry="2.68965" fill="url(#paint0_linear_1302_970)"/>
<circle opacity="0.4" cx="23.4" cy="19.9333" r="2.6" transform="rotate(-180 23.4 19.9333)" fill="url(#paint1_linear_1302_970)"/>
<ellipse cx="9.53336" cy="23.4" rx="2.6" ry="2.6" transform="rotate(-180 9.53336 23.4)" fill="url(#paint2_linear_1302_970)"/>
<circle cx="16.4667" cy="2.59998" r="2.6" transform="rotate(-180 16.4667 2.59998)" fill="#80FF00" fill-opacity="0.33"/>
<g style="mix-blend-mode:lighten">
<rect y="12.1333" width="5.2" height="12.1333" rx="2.6" fill="url(#paint3_linear_1302_970)"/>
</g>
<g style="mix-blend-mode:lighten">
<rect x="26" y="22.5333" width="5.2" height="17.3333" rx="2.6" transform="rotate(-180 26 22.5333)" fill="url(#paint4_linear_1302_970)"/>
</g>
<rect x="12.1334" y="26" width="5.2" height="19.0667" rx="2.6" transform="rotate(-180 12.1334 26)" fill="url(#paint5_linear_1302_970)"/>
<rect x="13.8666" width="5.2" height="17.3333" rx="2.6" fill="url(#paint6_linear_1302_970)"/>
<defs>
<linearGradient id="paint0_linear_1302_970" x1="2.87733" y1="15.343" x2="9.0237" y2="21.8056" gradientUnits="userSpaceOnUse">
<stop stop-color="#7239EE"/>
<stop offset="0.515625" stop-color="#C374F9"/>
<stop offset="1" stop-color="#6FCFEE"/>
</linearGradient>
<linearGradient id="paint1_linear_1302_970" x1="23.6773" y1="20.436" x2="29.6053" y2="26.884" gradientUnits="userSpaceOnUse">
<stop stop-color="#7239EE"/>
<stop offset="0.515625" stop-color="#C374F9"/>
<stop offset="1" stop-color="#6FCFEE"/>
</linearGradient>
<linearGradient id="paint2_linear_1302_970" x1="9.84289" y1="23.4743" x2="9.53336" y2="25.8143" gradientUnits="userSpaceOnUse">
<stop stop-color="#00FF09"/>
<stop offset="1" stop-color="#60FF66" stop-opacity="0"/>
</linearGradient>
<linearGradient id="paint3_linear_1302_970" x1="2.6" y1="11.2" x2="2.6" y2="22.4" gradientUnits="userSpaceOnUse">
<stop offset="0.186805" stop-color="#6EC052"/>
<stop offset="1" stop-color="#753CEF" stop-opacity="0"/>
</linearGradient>
<linearGradient id="paint4_linear_1302_970" x1="28.6" y1="21.2" x2="28.6" y2="37.2" gradientUnits="userSpaceOnUse">
<stop offset="0.186805" stop-color="#6EC052"/>
<stop offset="1" stop-color="#753CEF" stop-opacity="0"/>
</linearGradient>
<linearGradient id="paint5_linear_1302_970" x1="16.9" y1="27.3619" x2="16.9" y2="44.6127" gradientUnits="userSpaceOnUse">
<stop stop-color="#FBFF34"/>
<stop offset="1" stop-color="#91FF6A" stop-opacity="0.17"/>
</linearGradient>
<linearGradient id="paint6_linear_1302_970" x1="16.9" y1="17.3333" x2="16.9" y2="-3.64308e-07" gradientUnits="userSpaceOnUse">
<stop stop-color="#FFF25B" stop-opacity="0.26"/>
<stop offset="1" stop-color="#91FF6A"/>
</linearGradient>
</defs>
</svg>
