<svg width="131" height="26" viewBox="0 0 131 26" fill="none" xmlns="http://www.w3.org/2000/svg">
<path d="M40.9731 19.2133H38V6.55861H40.8411V9.2391C41.3261 8.24686 42.6262 6.5471 44.4629 6.5471H44.879V9.94374C44.6822 9.87176 44.4744 9.83477 44.2649 9.83445C42.256 9.83445 40.9818 11.3358 40.9818 12.3941L40.9731 19.2133Z" fill="white"/>
<path d="M52.9748 19.8747C48.4405 19.8747 45.5132 16.875 45.5132 12.8801C45.5132 8.88529 48.4175 5.90569 52.3578 5.90569C56.2981 5.90569 59.1852 8.86228 59.1852 12.8801V13.6222H48.6815C48.9456 15.8943 50.4035 17.3064 52.9863 17.3064C54.9464 17.3064 56.3124 16.6219 57.2911 15.6527L59.0732 17.5279C57.6641 18.8164 55.8619 19.8747 52.9748 19.8747ZM48.8136 11.3357H55.882C55.4429 9.54679 54.2203 8.44525 52.3578 8.44525C50.4953 8.44525 49.2526 9.54679 48.8136 11.3357Z" fill="white"/>
<path d="M68.0156 18.1319C67.5314 18.6289 66.9503 19.0207 66.3084 19.283C65.6666 19.5452 64.9778 19.6722 64.2848 19.6562C63.7331 19.6698 63.1844 19.5704 62.6724 19.364C62.1603 19.1577 61.6957 18.8488 61.3069 18.4562C60.9182 18.0637 60.6135 17.5957 60.4115 17.081C60.2095 16.5663 60.1144 16.0157 60.1322 15.4629C60.1322 13.1448 61.8942 11.2696 64.7239 11.2696C65.7902 11.2401 66.8408 11.5316 67.7401 12.1065V11.5543C67.7401 9.34836 66.8591 8.67824 65.0539 8.70988C64.193 8.70988 63.4698 8.81917 61.9258 9.10677L61.8397 6.59022C63.0112 6.31871 64.2103 6.18551 65.4127 6.19332C69.0459 6.19332 70.719 7.89307 70.719 10.6512V19.2133H68.0099L68.0156 18.1319ZM67.7745 15.3737C67.7788 15.0737 67.7217 14.776 67.6069 14.4989C67.4921 14.2218 67.3219 13.9712 67.1069 13.7624C66.8919 13.5536 66.6365 13.3911 66.3565 13.2849C66.0765 13.1787 65.7778 13.131 65.4787 13.1448C65.1827 13.1341 64.8876 13.1842 64.6117 13.2922C64.3357 13.4001 64.0847 13.5635 63.8742 13.7723C63.6637 13.9811 63.4981 14.231 63.3875 14.5064C63.277 14.7818 63.2239 15.077 63.2316 15.3737C63.2316 16.6967 64.1126 17.7781 65.4787 17.7781C65.7891 17.7784 66.0963 17.7157 66.3818 17.5936C66.6673 17.4716 66.9251 17.2928 67.1397 17.068C67.3543 16.8433 67.5212 16.5773 67.6304 16.2861C67.7395 15.9948 67.7885 15.6845 67.7745 15.3737Z" fill="white"/>
<path d="M75.7901 19.2133H72.8169V2H75.7901V19.2133Z" fill="white"/>
<path d="M80.8554 17.6027V24.0681H77.8822V6.54707H80.7004V8.27271C81.3515 7.57823 82.1408 7.02843 83.0173 6.65885C83.8938 6.28927 84.8379 6.10814 85.7886 6.12717C89.4448 6.12717 92.2199 9.10677 92.2199 12.837C92.2199 16.5673 89.4448 19.6332 85.7886 19.6332C84.8728 19.6413 83.9646 19.4659 83.1174 19.1172C82.2702 18.7685 81.5011 18.2536 80.8554 17.6027ZM84.9736 17.0275C85.5158 17.0336 86.0539 16.9312 86.5561 16.7261C87.0583 16.5211 87.5147 16.2176 87.8983 15.8334C88.2819 15.4492 88.585 14.9921 88.79 14.489C88.995 13.9858 89.0976 13.4466 89.0918 12.9032C89.0986 12.3573 88.9971 11.8154 88.7931 11.3092C88.5891 10.8029 88.2867 10.3424 87.9035 9.95434C87.5203 9.56629 87.0639 9.25846 86.5609 9.04877C86.0579 8.83907 85.5184 8.7317 84.9736 8.73288C83.8673 8.72522 82.8032 9.1575 82.0145 9.93495C81.2259 10.7124 80.777 11.7716 80.7664 12.8802C80.7694 13.4299 80.8807 13.9736 81.094 14.4801C81.3073 14.9866 81.6184 15.4459 82.0093 15.8315C82.4003 16.2171 82.8634 16.5216 83.3721 16.7273C83.8808 16.933 84.425 17.036 84.9736 17.0303V17.0275Z" fill="white"/>
<path d="M100.763 19.8747C96.2262 19.8747 93.3018 16.875 93.3018 12.8801C93.3018 8.88529 96.2032 5.90569 100.138 5.90569C104.072 5.90569 106.974 8.86228 106.974 12.8801V13.6222H96.4673C96.7341 15.8943 98.1892 17.3064 100.772 17.3064C102.732 17.3064 104.098 16.6219 105.077 15.6527L106.862 17.5279C105.453 18.8164 103.648 19.8747 100.763 19.8747ZM96.6021 11.3357H103.671C103.229 9.54679 101.997 8.44525 100.138 8.44525C98.2781 8.44525 97.0412 9.54679 96.6021 11.3357Z" fill="white"/>
<path d="M111.465 19.2133H108.492V6.55861H111.33V9.2391C111.815 8.24686 113.115 6.5471 114.943 6.5471H115.359V9.94374C115.163 9.87176 114.955 9.83477 114.745 9.83445C112.736 9.83445 111.462 11.3358 111.462 12.3941L111.465 19.2133Z" fill="white"/>
<path d="M119.635 17.6027V24.0681H116.662V6.54706H119.48V8.2727C120.132 7.57926 120.922 7.03053 121.798 6.66195C122.675 6.29337 123.618 6.11314 124.569 6.13291C128.225 6.13291 131 9.11251 131 12.8428C131 16.573 128.225 19.6332 124.569 19.6332C123.653 19.6413 122.745 19.4659 121.897 19.1172C121.05 18.7685 120.281 18.2536 119.635 17.6027ZM123.754 17.0274C124.296 17.0336 124.834 16.9312 125.336 16.7261C125.838 16.5211 126.295 16.2175 126.678 15.8334C127.062 15.4492 127.365 14.9921 127.57 14.4889C127.775 13.9858 127.878 13.4466 127.872 12.9032C127.879 12.3572 127.777 11.8154 127.573 11.3092C127.369 10.8029 127.067 10.3424 126.684 9.95433C126.3 9.56627 125.844 9.25845 125.341 9.04875C124.838 8.83906 124.298 8.73168 123.754 8.73287C122.647 8.72597 121.583 9.1589 120.794 9.9368C120.006 10.7147 119.557 11.7742 119.546 12.883C119.55 13.4324 119.662 13.9757 119.876 14.4816C120.089 14.9876 120.4 15.4464 120.791 15.8317C121.182 16.2169 121.645 16.5211 122.153 16.7268C122.662 16.9325 123.205 17.0356 123.754 17.0303V17.0274Z" fill="white"/>
<ellipse opacity="0.4" cx="2.6" cy="14.823" rx="2.6" ry="2.68965" fill="url(#paint0_linear_1302_960)"/>
<circle opacity="0.4" cx="23.4" cy="19.9333" r="2.6" transform="rotate(-180 23.4 19.9333)" fill="url(#paint1_linear_1302_960)"/>
<ellipse cx="9.53336" cy="23.4" rx="2.6" ry="2.6" transform="rotate(-180 9.53336 23.4)" fill="url(#paint2_linear_1302_960)"/>
<circle cx="16.4667" cy="2.59998" r="2.6" transform="rotate(-180 16.4667 2.59998)" fill="#80FF00" fill-opacity="0.33"/>
<g style="mix-blend-mode:lighten">
<rect y="12.1333" width="5.2" height="12.1333" rx="2.6" fill="url(#paint3_linear_1302_960)"/>
</g>
<g style="mix-blend-mode:lighten">
<rect x="26" y="22.5333" width="5.2" height="17.3333" rx="2.6" transform="rotate(-180 26 22.5333)" fill="url(#paint4_linear_1302_960)"/>
</g>
<rect x="12.1334" y="26" width="5.2" height="19.0667" rx="2.6" transform="rotate(-180 12.1334 26)" fill="url(#paint5_linear_1302_960)"/>
<rect x="13.8666" width="5.2" height="17.3333" rx="2.6" fill="url(#paint6_linear_1302_960)"/>
<defs>
<linearGradient id="paint0_linear_1302_960" x1="2.87733" y1="15.343" x2="9.0237" y2="21.8056" gradientUnits="userSpaceOnUse">
<stop stop-color="#7239EE"/>
<stop offset="0.515625" stop-color="#C374F9"/>
<stop offset="1" stop-color="#6FCFEE"/>
</linearGradient>
<linearGradient id="paint1_linear_1302_960" x1="23.6773" y1="20.436" x2="29.6053" y2="26.884" gradientUnits="userSpaceOnUse">
<stop stop-color="#7239EE"/>
<stop offset="0.515625" stop-color="#C374F9"/>
<stop offset="1" stop-color="#6FCFEE"/>
</linearGradient>
<linearGradient id="paint2_linear_1302_960" x1="9.84289" y1="23.4743" x2="9.53336" y2="25.8143" gradientUnits="userSpaceOnUse">
<stop stop-color="#00FF09"/>
<stop offset="1" stop-color="#60FF66" stop-opacity="0"/>
</linearGradient>
<linearGradient id="paint3_linear_1302_960" x1="2.6" y1="11.2" x2="2.6" y2="22.4" gradientUnits="userSpaceOnUse">
<stop offset="0.186805" stop-color="#6EC052"/>
<stop offset="1" stop-color="#753CEF" stop-opacity="0"/>
</linearGradient>
<linearGradient id="paint4_linear_1302_960" x1="28.6" y1="21.2" x2="28.6" y2="37.2" gradientUnits="userSpaceOnUse">
<stop offset="0.186805" stop-color="#6EC052"/>
<stop offset="1" stop-color="#753CEF" stop-opacity="0"/>
</linearGradient>
<linearGradient id="paint5_linear_1302_960" x1="16.9" y1="27.3619" x2="16.9" y2="44.6127" gradientUnits="userSpaceOnUse">
<stop stop-color="#FBFF34"/>
<stop offset="1" stop-color="#91FF6A" stop-opacity="0.17"/>
</linearGradient>
<linearGradient id="paint6_linear_1302_960" x1="16.9" y1="17.3333" x2="16.9" y2="-3.64308e-07" gradientUnits="userSpaceOnUse">
<stop stop-color="#FFF25B" stop-opacity="0.26"/>
<stop offset="1" stop-color="#91FF6A"/>
</linearGradient>
</defs>
</svg>
